<svg width="675" height="398" viewBox="0 0 675 398" fill="none" xmlns="http://www.w3.org/2000/svg">
<g clip-path="url(#clip0)">
<path d="M312.381 368.146C311.816 365.602 310.877 363.155 309.596 360.885C308.305 359.026 306.771 357.347 305.036 355.894C299.989 351.313 293.793 346.663 287.103 347.819C285.034 348.277 283.035 349.007 281.158 349.991C280.183 350.444 279.202 350.896 278.199 351.279C275.377 352.459 272.258 352.731 269.274 352.059C267.742 351.648 266.315 350.91 264.805 350.451C264.088 350.236 263.354 350.077 262.612 349.978C264.072 349.325 265.488 348.578 266.852 347.743C274.352 343.148 280.343 334.843 279.508 325.96C279.098 322.985 278.317 320.074 277.183 317.293L274.51 309.9C273.354 306.7 272.157 303.433 270.048 300.773C267.579 297.898 264.44 295.674 260.908 294.299C253.494 291.076 245.391 289.941 237.392 288.841L236.835 288.764V202.351C236.835 200.874 236.248 199.458 235.204 198.413C234.159 197.369 232.743 196.782 231.266 196.782H220.754C220.287 193.942 219.823 191.106 219.362 188.275C218.039 180.193 216.668 171.964 212.944 164.689C210.507 159.927 206.63 155.381 201.402 154.449C200.375 154.355 199.365 154.119 198.402 153.749C196.87 152.997 196.035 151.326 194.859 150.094C191.824 146.913 186.888 146.864 182.823 145.221C179.231 143.794 176.293 141.107 173.023 139.039C169.753 136.971 165.686 135.503 162.066 136.846C162.054 137.11 162.029 137.372 161.989 137.633L159.664 136.561C157.091 135.533 154.703 134.094 152.591 132.301C150.008 129.864 148.63 126.634 147.558 123.201C147.447 122.846 147.342 122.501 147.231 122.122C151.681 117.582 154.693 111.831 155.891 105.588L156.455 107.419C156.582 107.83 156.731 108.234 156.901 108.63C157.189 109.395 157.668 110.073 158.293 110.6C158.471 110.74 158.668 110.855 158.878 110.941C159.071 111.017 159.272 111.069 159.478 111.094C159.767 111.13 160.06 111.108 160.341 111.031C160.812 110.885 161.244 110.636 161.605 110.301C161.966 109.966 162.248 109.554 162.429 109.096C162.54 108.822 162.622 108.538 162.673 108.247C162.7 108.072 162.716 107.895 162.722 107.718V106.994C162.725 106.877 162.714 106.76 162.687 106.646V106.465C162.678 106.326 162.654 106.188 162.617 106.054C162.589 105.922 162.617 105.977 162.617 105.943C162.582 105.769 162.54 105.588 162.506 105.414V105.282C162.506 105.24 162.443 104.997 162.406 104.85C162.369 104.703 162.357 104.662 162.336 104.565V104.523C162.266 104.245 162.204 103.973 162.141 103.695C161.635 101.279 161.506 98.7994 161.758 96.344C162.175 92.7404 162.84 89.1699 163.749 85.658L163.895 85.024C163.951 84.78 164.006 84.537 164.055 84.286C164.166 83.786 164.278 83.286 164.382 82.775L164.633 81.494L164.821 80.352V80.21C165.212 77.6229 165.294 74.9985 165.065 72.392V72.392C164.877 68.7732 163.499 65.3176 161.146 62.562C159.399 60.62 157.094 59.186 155.472 57.146C153.954 55.239 153.098 52.886 151.525 51.013C147.181 45.827 136.025 41.831 129.186 41.135C121.347 40.341 108.686 42.346 102.363 46.976C100.024 48.682 98.423 51.153 96.794 53.492C93.801 57.843 90.403 62.187 85.607 64.63C83.797 65.549 81.722 66.245 80.518 67.846C79.8015 68.9314 79.3374 70.1636 79.16 71.452C78.2377 75.9848 77.7574 80.5964 77.726 85.222V85.222V86.962C77.7403 88.6962 78.1099 90.4092 78.812 91.995C78.923 92.232 79.049 92.461 79.181 92.695L79.265 92.841C80.1071 94.0446 80.8521 95.3132 81.493 96.635C81.6526 97.0052 81.7671 97.3934 81.834 97.791C81.9532 98.8108 81.8872 99.8437 81.639 100.84C81.6224 100.995 81.5923 101.149 81.549 101.299L81.486 101.599C81.4952 101.704 81.4758 101.81 81.43 101.905C81.374 102.205 81.33 102.505 81.284 102.796C81.1784 103.601 81.2303 104.42 81.437 105.205C81.5324 105.642 81.7193 106.055 81.9857 106.415C82.252 106.775 82.5915 107.074 82.982 107.293C83.3785 107.483 83.8006 107.615 84.235 107.683C84.674 107.76 85.119 107.808 85.551 107.906C86.106 108.033 86.6419 108.232 87.145 108.498C87.6272 108.729 88.0787 109.018 88.489 109.361C88.692 109.546 88.8849 109.741 89.067 109.946C89.4348 110.367 89.7657 110.819 90.056 111.297C90.2047 111.543 90.344 111.794 90.474 112.049C90.9727 113.057 91.3713 114.111 91.664 115.196C91.845 115.843 91.998 116.496 92.13 117.152C92.193 117.444 92.248 117.737 92.297 118.022C92.346 118.307 92.397 118.6 92.436 118.885C92.6259 118.874 92.8135 118.837 92.993 118.774C93.4986 118.498 93.934 118.11 94.2659 117.639C94.5977 117.168 94.8171 116.628 94.907 116.059C94.963 115.864 95.007 115.676 95.053 115.488C95.213 114.788 95.38 114.026 95.54 113.295C98.2828 119.122 102.706 123.995 108.24 127.288C108.435 127.866 108.623 128.437 108.79 129.021C109.702 132.175 110.141 135.474 108.56 138.231C107.357 140.114 105.543 141.526 103.422 142.231C103.117 141.824 102.724 141.491 102.273 141.256C100.442 140.337 98.242 141.451 96.704 142.822C93.919 145.342 91.65 148.955 87.988 149.783C86.665 150.089 85.203 150.027 84.103 150.834C83.3766 151.518 82.7684 152.318 82.303 153.201C81.5082 154.342 80.4396 155.265 79.1952 155.885C77.9508 156.505 76.5704 156.803 75.181 156.751C73.907 156.688 72.396 156.396 71.526 157.329C70.879 158.029 70.826 159.129 70.134 159.786C69.201 160.705 67.67 160.259 66.368 160.204C65.1213 160.236 63.9021 160.577 62.8198 161.196C61.7376 161.816 60.8264 162.695 60.168 163.754C58.8684 165.908 57.9278 168.259 57.383 170.715V170.757C57.2044 170.887 57.0347 171.029 56.875 171.182C56.2002 171.901 55.6772 172.749 55.337 173.674C49.7073 186.491 46.3843 200.202 45.521 214.174C45.5346 214.855 45.3815 215.529 45.075 216.137C44.7636 216.535 44.4216 216.907 44.052 217.251C43.7212 217.656 43.475 218.123 43.3281 218.625C43.1813 219.127 43.1367 219.653 43.1971 220.172C43.2574 220.692 43.4214 221.194 43.6794 221.649C43.9374 222.103 44.2841 222.502 44.699 222.82C44.8993 222.457 45.1501 222.124 45.444 221.831C45.367 222.151 45.298 222.464 45.249 222.75C44.9693 224.781 44.9434 226.839 45.172 228.876C45.8313 238.548 46.498 248.213 47.172 257.871C47.36 260.607 47.548 263.336 47.799 266.065C48.2863 271.346 48.9823 276.607 49.887 281.847C49.9257 282.083 49.9767 282.317 50.04 282.547C44.366 284.347 39.319 287.608 37.196 293.047C36.458 294.927 36.124 296.973 35.219 298.776C34.219 300.753 32.588 302.333 31.502 304.269C29.629 307.597 29.546 311.676 30.228 315.407C31.544 322.682 35.477 329.184 40.67 334.475H39.97C38.2732 334.663 36.6443 335.247 35.215 336.181C24.23 342.599 17.95 356.369 20.241 368.942C20.5745 371.433 21.5697 373.789 23.123 375.764C24.4893 377.251 26.2451 378.325 28.191 378.864C29.4081 379.232 30.6614 379.466 31.929 379.564C40.492 380.264 48.783 376.292 57.366 375.958C60.2096 375.914 63.0531 376.047 65.88 376.358C70.0133 376.701 74.1553 376.919 78.306 377.012C85.052 377.172 88.846 375.376 93.148 370.336C94.2052 369.082 95.0879 367.691 95.772 366.201C99.434 365.992 103.478 365.672 106.402 365.435L106.444 365.835C106.604 367.227 106.844 368.828 107.962 369.706C108.588 370.138 109.301 370.43 110.05 370.562C117.081 372.289 124.196 374.043 131.436 374.043C134.834 373.974 138.225 373.714 141.593 373.263L154.312 371.794C158.018 372.264 161.676 373.061 165.242 374.175C168.918 375.421 172.35 377.275 175.942 378.742C184.296 382.125 193.276 383.337 202.173 384.52C203.691 384.72 205.431 384.861 206.552 383.82C208 382.428 207.52 380.103 207.109 378.153C206.942 377.353 206.817 376.553 206.719 375.744C212.723 377.327 218.597 379.367 224.29 381.844L225.29 382.283C225.582 383.801 226.982 385.012 228.325 386.648C228.766 387.338 229.282 387.978 229.863 388.555C230.528 388.986 231.283 389.258 232.07 389.349C241.462 391.099 251.052 391.532 260.563 390.637C262.51 390.372 264.479 390.305 266.439 390.437C267.879 390.633 269.299 390.952 270.685 391.391L278.739 393.702C284.677 395.402 290.755 397.12 296.916 396.737C298.165 396.658 299.406 396.479 300.626 396.201C305.499 395.073 310.038 392.351 312.377 387.972C315.688 382.01 314.163 374.69 312.381 368.146Z" fill="url(#paint0_linear)"/>
<path d="M87.031 366.79C85.562 363.448 84.17 359.606 85.639 356.264C86.5976 354.296 88.2446 352.748 90.268 351.913C92.2703 351.097 94.3807 350.576 96.533 350.368C103.288 349.482 110.124 349.389 116.901 350.09C117.395 354.002 116.351 357.97 115.453 361.751C114.639 365.232 114.172 365.751 110.58 365.928C108.256 366.05 87.581 368.02 87.031 366.79Z" fill="#FBBEBE"/>
<path d="M149.023 344.247C204.003 344.247 248.573 331.78 248.573 316.401C248.573 301.022 204.003 288.555 149.023 288.555C94.043 288.555 49.473 301.022 49.473 316.401C49.473 331.78 94.043 344.247 149.023 344.247Z" fill="#464353"/>
<path opacity="0.1" d="M149.023 344.247C204.003 344.247 248.573 331.78 248.573 316.401C248.573 301.022 204.003 288.555 149.023 288.555C94.043 288.555 49.473 301.022 49.473 316.401C49.473 331.78 94.043 344.247 149.023 344.247Z" fill="black"/>
<path d="M166.872 169.4C163.46 175.994 157.792 181.142 150.902 183.908C146.834 185.39 142.553 186.204 138.225 186.317C133.494 186.673 128.739 186.093 124.232 184.611C118.273 182.453 113.323 178.039 109.613 172.895C105.903 167.751 103.348 161.875 101.127 155.951C99.957 152.867 98.844 149.581 99.394 146.323C102.979 145.509 106.905 144.311 108.757 141.13C110.337 138.401 109.899 135.13 108.987 132.01C108.729 131.126 108.43 130.249 108.131 129.41C107.431 127.391 105.031 123.555 106.739 121.829C107.804 120.736 112.266 120.179 113.805 119.469C118.546 117.283 122.918 114.123 128.125 113.085C132.625 112.185 137.279 113.029 141.776 113.962C142.373 114.049 142.946 114.255 143.461 114.568C144.048 115.063 144.483 115.715 144.714 116.448C145.995 119.567 146.747 123.013 147.777 126.264C148.849 129.664 150.227 132.864 152.81 135.279C154.928 137.057 157.318 138.482 159.89 139.498L166.058 142.324C167.155 142.735 168.15 143.379 168.975 144.211C169.781 145.32 170.263 146.631 170.367 147.998C171.472 155.324 170.25 162.811 166.872 169.405V169.4Z" fill="#FBBEBE"/>
<path opacity="0.1" d="M147.748 126.261C142.836 131.375 136.366 134.714 129.352 135.754C122.339 136.795 115.178 135.478 108.993 132.011C108.735 131.127 108.436 130.25 108.137 129.411C107.437 127.392 105.037 123.556 106.745 121.83C107.81 120.737 112.272 120.18 113.811 119.47C118.552 117.284 122.924 114.124 128.131 113.086C132.631 112.186 137.285 113.03 141.783 113.963C142.38 114.05 142.953 114.256 143.468 114.569C144.055 115.064 144.49 115.716 144.721 116.449C145.966 119.564 146.718 123.01 147.748 126.261Z" fill="black"/>
<path d="M124.658 134.706C142.344 134.706 156.681 120.369 156.681 102.683C156.681 84.9972 142.344 70.66 124.658 70.66C106.972 70.66 92.635 84.9972 92.635 102.683C92.635 120.369 106.972 134.706 124.658 134.706Z" fill="#FBBEBE"/>
<path d="M222.223 206.609L219.592 190.667C218.262 182.667 216.892 174.516 213.173 167.311C210.73 162.591 206.852 158.094 201.624 157.161C200.594 157.068 199.582 156.832 198.617 156.461C197.085 155.723 196.25 154.066 195.074 152.841C192.039 149.694 187.096 149.641 183.031 148.041C179.439 146.649 176.501 143.969 173.231 141.922C169.961 139.875 165.887 138.441 162.267 139.75C161.682 145.981 161.067 152.35 158.417 158.024C156.696 161.719 154.171 164.982 151.027 167.576C147.882 170.169 144.198 172.026 140.243 173.012C136.288 173.998 132.163 174.088 128.169 173.274C124.175 172.46 120.414 170.764 117.16 168.309C110.96 163.638 106.982 156.433 105.131 148.893C104.678 147.055 104.163 144.946 102.472 144.103C100.641 143.184 98.441 144.298 96.903 145.648C94.118 148.148 91.842 151.725 88.18 152.568C86.857 152.874 85.395 152.812 84.295 153.612C83.564 154.287 82.9521 155.08 82.485 155.958C81.6837 157.09 80.6131 158.005 79.3697 158.62C78.1263 159.236 76.7493 159.531 75.363 159.481C74.089 159.418 72.578 159.126 71.708 160.052C71.061 160.752 71.008 161.834 70.316 162.482C69.376 163.394 67.852 162.948 66.543 162.9C65.3043 162.932 64.0921 163.265 63.0116 163.872C61.9311 164.479 61.0151 165.34 60.343 166.381C59.0411 168.499 58.0999 170.819 57.558 173.245C65.167 190.189 72.128 207.155 79.737 224.099C80.0934 224.738 80.2826 225.456 80.287 226.187C80.1344 226.946 79.8105 227.661 79.34 228.276C75.609 234.27 75.727 241.809 76.14 248.854C76.553 255.899 77.052 263.341 73.905 269.654C73.049 271.387 71.935 272.975 71.12 274.708C69.213 278.634 68.52 291.193 69.637 295.408H227.02C224.02 287.159 225.161 270.608 225.788 261.847C226.227 255.721 225.088 249.602 224.605 243.476C223.539 230.969 224.291 219.1 222.223 206.609Z" fill="#6C63FF"/>
<path d="M45.499 224.85C45.2204 226.864 45.1922 228.906 45.415 230.927L47.415 259.657C47.603 262.365 47.791 265.066 48.042 267.767C48.522 273.009 49.242 278.209 50.13 283.403C50.1502 284.14 50.462 284.84 50.997 285.347C51.5321 285.855 52.2467 286.13 52.984 286.111C61.79 287.977 70.884 287.9 79.876 287.392C93.59 286.626 107.283 284.879 121.019 285.178C124.555 285.255 128.677 285.178 130.819 282.393C132.961 279.608 131.719 275.104 128.919 272.856C126.119 270.608 122.319 270.071 118.727 270.071C113.972 270.022 109.218 270.698 104.477 270.419C100.139 270.03 95.8464 269.239 91.654 268.059L79.819 265.114C80.4413 261.547 81.486 258.068 82.931 254.748C85.256 248.712 87.431 242.475 87.47 236.008C87.509 229.541 85.075 222.739 79.778 219.036C75.42 215.994 69.809 215.43 64.497 215.555C60.633 215.666 53.957 214.74 50.428 216.255C47.636 217.478 46.021 222.114 45.499 224.85Z" fill="#FBBEBE"/>
<path d="M230.275 290.539C232.593 289.655 235.148 289.975 237.633 290.309C245.633 291.402 253.749 292.523 261.163 295.718C264.691 297.075 267.831 299.277 270.31 302.13C272.398 304.768 273.617 307.999 274.772 311.18L277.445 318.504C278.582 321.255 279.365 324.14 279.777 327.088C280.612 335.853 274.619 344.116 267.077 348.669C259.535 353.222 250.662 354.844 242.016 356.542C233.37 358.24 224.689 360.12 216.077 362.111C212.062 363.153 207.988 363.954 203.877 364.511C194.66 365.555 185.025 364.017 176.268 367.066C172.787 368.284 169.368 370.094 165.756 370.937C163.356 371.442 160.93 371.812 158.488 372.044L141.913 373.938C138.542 374.389 135.149 374.649 131.749 374.718C124.509 374.718 117.387 373.005 110.356 371.293C109.609 371.162 108.897 370.875 108.268 370.451C107.154 369.574 106.911 368.021 106.75 366.615C106.04 360.392 105.418 354.161 104.884 347.923C104.717 345.897 104.592 343.704 105.699 341.999C107.091 339.911 109.806 339.256 112.285 338.852C122.794 337.133 133.44 336.394 144.085 336.645C148.13 332.6 154.799 332.579 160.096 330.38C162.045 329.485 163.931 328.459 165.742 327.31C175.219 321.781 185.809 318.435 196.742 317.515C198.883 317.451 201.01 317.149 203.084 316.615C207.184 315.341 210.923 311.874 215.134 312.723C215.656 311.282 216.018 309.354 217.222 308.365C217.822 307.857 218.559 307.516 219.109 306.973C220.272 305.796 220.376 303.945 220.202 302.302C220.028 300.659 219.638 298.974 220.063 297.373C220.24 296.767 220.5 296.188 220.836 295.654C222.927 292.043 226.08 290.191 230.275 290.539Z" fill="#464353"/>
<path opacity="0.05" d="M230.275 290.539C232.593 289.655 235.148 289.975 237.633 290.309C245.633 291.402 253.749 292.523 261.163 295.718C264.691 297.075 267.831 299.277 270.31 302.13C272.398 304.768 273.617 307.999 274.772 311.18L277.445 318.504C278.582 321.255 279.365 324.14 279.777 327.088C280.612 335.853 274.619 344.116 267.077 348.669C259.535 353.222 250.662 354.844 242.016 356.542C233.37 358.24 224.689 360.12 216.077 362.111C212.062 363.153 207.988 363.954 203.877 364.511C194.66 365.555 185.025 364.017 176.268 367.066C172.787 368.284 169.368 370.094 165.756 370.937C163.356 371.442 160.93 371.812 158.488 372.044L141.913 373.938C138.542 374.389 135.149 374.649 131.749 374.718C124.509 374.718 117.387 373.005 110.356 371.293C109.609 371.162 108.897 370.875 108.268 370.451C107.154 369.574 106.911 368.021 106.75 366.615C106.04 360.392 105.418 354.161 104.884 347.923C104.717 345.897 104.592 343.704 105.699 341.999C107.091 339.911 109.806 339.256 112.285 338.852C122.794 337.133 133.44 336.394 144.085 336.645C148.13 332.6 154.799 332.579 160.096 330.38C162.045 329.485 163.931 328.459 165.742 327.31C175.219 321.781 185.809 318.435 196.742 317.515C198.883 317.451 201.01 317.149 203.084 316.615C207.184 315.341 210.923 311.874 215.134 312.723C215.656 311.282 216.018 309.354 217.222 308.365C217.822 307.857 218.559 307.516 219.109 306.973C220.272 305.796 220.376 303.945 220.202 302.302C220.028 300.659 219.638 298.974 220.063 297.373C220.24 296.767 220.5 296.188 220.836 295.654C222.927 292.043 226.08 290.191 230.275 290.539Z" fill="black"/>
<path d="M93.435 371.091C89.126 376.082 85.335 377.864 78.586 377.704C74.4367 377.607 70.2923 377.391 66.153 377.057C63.3235 376.75 60.4778 376.616 57.632 376.657C49.042 376.991 40.75 380.924 32.181 380.235C30.9138 380.134 29.6608 379.899 28.443 379.535C26.5004 379.001 24.7442 377.938 23.37 376.465C21.8188 374.512 20.8232 372.177 20.488 369.705C19.4529 363.418 20.3273 356.966 22.9981 351.182C25.669 345.397 30.0135 340.547 35.47 337.258C36.9043 336.332 38.5347 335.752 40.232 335.566C41.896 335.559 43.541 335.92 45.049 336.624L45.149 336.666C49.6149 338.504 53.6708 341.211 57.081 344.63C57.5984 345.223 58.2158 345.72 58.905 346.099C59.593 346.357 60.3211 346.493 61.056 346.499L70.203 347.077C71.7529 347.123 73.2934 347.335 74.798 347.71C76.4565 348.289 78.071 348.987 79.629 349.799C84.551 351.999 90.009 352.584 95.329 353.433C95.8414 353.461 96.3304 353.657 96.721 353.99C96.9327 354.252 97.0806 354.561 97.153 354.89C97.9006 357.688 97.9527 360.626 97.3049 363.448C96.657 366.27 95.3288 368.891 93.436 371.083L93.435 371.091Z" fill="#3F3D56"/>
<path opacity="0.1" d="M45.15 336.673C41.6011 340.062 38.5224 343.911 35.996 348.118C31.9415 355.06 29.3939 362.779 28.519 370.771C28.1871 373.686 28.1613 376.628 28.442 379.549C26.4989 379.013 24.743 377.948 23.37 376.472C21.8188 374.519 20.8232 372.183 20.488 369.712C19.4529 363.425 20.3273 356.973 22.9981 351.189C25.669 345.404 30.0135 340.554 35.47 337.265C36.9042 336.338 38.5347 335.759 40.232 335.573C41.896 335.566 43.541 335.927 45.049 336.631L45.15 336.673Z" fill="black"/>
<path d="M222.314 353.993C227.431 353.854 233.174 353.593 236.933 357.042C240.518 360.3 240.992 365.674 241.233 370.513L241.505 376.131C241.717 377.839 241.534 379.573 240.969 381.199C239.744 383.984 236.381 385.327 233.311 385.167C230.241 385.007 227.422 383.667 224.616 382.452C216.999 379.171 209.069 376.673 200.947 374.996C201.214 371.111 201.655 367.245 202.27 363.396C202.695 360.73 202.764 356.267 204.546 354.054C206.433 351.715 208.89 352.982 211.452 353.414C215.047 353.963 218.686 354.156 222.319 353.992L222.314 353.993Z" fill="#FBBEBE"/>
<path d="M87.094 297.542C87.094 298.242 86.001 297.542 85.904 296.797C85.138 291.165 80.669 286.522 75.462 284.266C70.255 282.01 64.324 281.892 58.685 282.428C50.157 283.236 40.585 286.5 37.466 294.471C36.728 296.337 36.394 298.356 35.489 300.145C34.489 302.108 32.851 303.674 31.765 305.582C29.892 308.882 29.816 312.926 30.491 316.658C32.308 326.613 39.116 335.127 47.366 341.023C55.616 346.919 65.257 350.442 74.866 353.616C100.288 361.999 126.371 368.228 152.838 372.235C157.148 372.74 161.406 373.618 165.564 374.86C169.24 376.092 172.679 377.937 176.271 379.385C184.625 382.74 193.612 383.938 202.516 385.114C204.034 385.309 205.774 385.448 206.895 384.414C208.343 383.07 207.863 380.731 207.452 378.803C205.941 371.471 207.208 363.839 211.009 357.389C212.499 354.883 214.434 352.314 214.156 349.411C213.822 346.028 210.456 343.633 207.097 343.09C203.738 342.547 200.33 343.348 196.961 343.79C195.806 344.055 194.596 343.936 193.515 343.449C193.014 343.11 192.56 342.707 192.164 342.249C189.843 340.01 186.872 338.563 183.678 338.117C180.484 337.67 177.23 338.247 174.384 339.764C173.138 340.464 171.251 338.908 169.956 338.323L155.316 331.696C138.497 324.087 121.594 316.443 103.801 311.626C102.381 311.347 101.032 310.786 99.833 309.976C98.949 309.276 98.315 308.333 97.501 307.56C95.726 305.882 93.254 305.214 91.124 304.024C88.994 302.834 86.606 299.935 87.094 297.542Z" fill="#464353"/>
<path d="M312.792 388.522C310.453 392.859 305.914 395.56 301.041 396.674C299.818 396.95 298.575 397.127 297.324 397.203C291.163 397.586 285.079 395.88 279.141 394.196L271.08 391.927C269.694 391.491 268.273 391.174 266.833 390.98C264.873 390.848 262.904 390.915 260.957 391.18C251.429 392.066 241.825 391.635 232.415 389.899C231.628 389.814 230.872 389.544 230.208 389.112C229.627 388.542 229.11 387.909 228.669 387.225C226.476 384.587 224.116 383.048 226.713 379.567C228.213 377.548 230.987 376.539 232.15 374.221C233.313 371.903 232.568 368.61 231.878 366.215C230.938 362.908 227.847 361.481 226.74 358.446C225.912 356.156 227.304 353.496 229.399 352.246C231.586 351.125 234.084 350.765 236.499 351.223C238.915 351.543 241.282 352.223 243.711 352.413C250.854 352.984 258.156 349.301 265.011 351.376C266.522 351.835 267.949 352.566 269.48 352.97C272.466 353.638 275.585 353.368 278.412 352.197C279.412 351.821 280.396 351.369 281.371 350.923C283.251 349.945 285.252 349.221 287.323 348.772C294.013 347.623 300.216 352.253 305.263 356.772C306.996 358.21 308.529 359.872 309.823 361.715C311.12 363.952 312.06 366.379 312.608 368.906C314.456 375.351 315.98 382.604 312.792 388.522Z" fill="#3F3D56"/>
<path opacity="0.1" d="M312.792 388.521C310.453 392.858 305.914 395.559 301.041 396.673C302.936 392.99 303.791 388.86 303.512 384.727C303.094 378.107 300.184 371.869 296.474 366.369C294.191 362.984 291.595 359.821 288.719 356.922C286.505 354.694 283.783 352.922 281.402 350.886C283.282 349.907 285.283 349.184 287.354 348.735C294.044 347.586 300.247 352.216 305.294 356.735C307.027 358.173 308.56 359.835 309.854 361.678C311.151 363.915 312.091 366.342 312.639 368.869C314.456 375.354 315.983 382.604 312.792 388.521Z" fill="black"/>
<path d="M57.157 173.76C56.4791 174.47 55.9533 175.311 55.612 176.231C49.9847 188.913 46.6608 202.496 45.796 216.343C45.811 217.018 45.6551 217.686 45.343 218.285C45.0355 218.684 44.6931 219.054 44.32 219.392C43.9811 219.794 43.7283 220.261 43.577 220.764C43.4258 221.267 43.3794 221.796 43.4407 222.318C43.502 222.84 43.6697 223.344 43.9334 223.799C44.1971 224.253 44.5513 224.649 44.974 224.961C46.123 222.796 48.874 222.093 51.316 221.905C63.016 220.979 74.449 226.423 86.186 226.012C85.358 223.151 84.167 220.401 83.492 217.505C80.506 204.647 87.954 190.648 83.392 178.263C82.48 175.785 80.955 173.348 78.554 172.263C77.5589 171.861 76.5175 171.586 75.454 171.442C72.488 170.906 66.585 168.616 63.717 169.535C62.659 169.876 62.241 170.872 61.364 171.47C60.034 172.326 58.266 172.639 57.157 173.76Z" fill="#6C63FF"/>
<path d="M229.116 199.099H89.814C85.4123 199.099 81.844 202.667 81.844 207.069V289.982C81.844 294.384 85.4123 297.952 89.814 297.952H229.116C233.518 297.952 237.086 294.384 237.086 289.982V207.069C237.086 202.667 233.518 199.099 229.116 199.099Z" fill="#3F3D56"/>
<path d="M159.117 252.703C161.424 252.703 163.294 250.833 163.294 248.526C163.294 246.219 161.424 244.349 159.117 244.349C156.81 244.349 154.94 246.219 154.94 248.526C154.94 250.833 156.81 252.703 159.117 252.703Z" fill="white"/>
<path d="M102.534 50.708C100.195 52.4 98.594 54.829 96.965 57.161C93.965 61.47 90.565 65.772 85.771 68.174C83.954 69.086 81.88 69.774 80.671 71.362C79.956 72.4353 79.4919 73.6558 79.313 74.933C78.3942 79.4241 77.9139 83.994 77.879 88.578C77.7351 90.87 78.1136 93.1647 78.986 95.289C79.94 97.238 81.659 98.889 82.014 101.011C82.285 102.668 81.673 104.318 81.457 105.982C81.241 107.646 81.617 109.616 83.157 110.409C83.9861 110.721 84.8518 110.925 85.733 111.015C90.362 112.045 91.915 117.475 92.618 121.965C94.191 121.874 94.901 120.071 95.229 118.603L100.053 97.155C100.575 94.83 101.445 92.136 103.763 91.321C105.315 90.785 107.014 91.286 108.636 91.421C115.006 91.943 120.394 87.021 126.625 85.664C128.619 85.2628 130.658 85.1283 132.688 85.264C137.603 85.508 143.318 87.526 144.362 92.114C144.536 92.859 144.64 93.75 145.337 94.114C146.034 94.478 146.764 94.17 147.495 94.114C150.614 93.801 152.452 97.314 153.35 100.177L156.622 110.619C157.109 112.199 157.931 114.058 159.643 114.26C161.223 114.455 162.567 112.96 162.804 111.475C162.882 109.946 162.672 108.415 162.184 106.964C160.646 100.107 162.999 93.09 164.433 86.219C165.867 79.348 166.125 71.454 161.314 66.163C159.567 64.249 157.269 62.821 155.64 60.803C154.122 58.909 153.266 56.584 151.693 54.726C147.342 49.595 136.183 45.634 129.34 44.98C121.525 44.139 108.855 46.12 102.534 50.708Z" fill="#3F3D56"/>
<g opacity="0.1">
<path opacity="0.1" d="M159.673 109.394C157.96 109.185 157.139 107.306 156.652 105.753C155.561 102.268 154.471 98.787 153.38 95.311C152.48 92.436 150.644 88.927 147.525 89.248C146.794 89.325 146.007 89.61 145.367 89.248C144.727 88.886 144.567 87.988 144.392 87.248C143.348 82.653 137.632 80.642 132.718 80.398C130.688 80.2658 128.65 80.4003 126.655 80.798C120.424 82.19 115.036 87.063 108.666 86.555C107.023 86.423 105.324 85.921 103.793 86.455C101.447 87.263 100.605 89.936 100.083 92.289L95.262 113.724C94.935 115.2 94.225 117.003 92.651 117.086C91.951 112.603 90.395 107.173 85.766 106.142C84.886 106.045 84.021 105.841 83.19 105.536C82.5836 105.204 82.1092 104.675 81.846 104.036C81.721 104.683 81.575 105.331 81.491 105.978C81.282 107.635 81.651 109.612 83.191 110.406C84.02 110.718 84.8858 110.922 85.767 111.012C90.396 112.042 91.949 117.472 92.652 121.962C94.225 121.872 94.935 120.068 95.263 118.6L100.087 97.152C100.609 94.827 101.479 92.133 103.797 91.318C105.349 90.782 107.048 91.283 108.67 91.418C115.04 91.94 120.428 87.018 126.659 85.661C128.653 85.2598 130.692 85.1253 132.722 85.261C137.637 85.505 143.352 87.523 144.396 92.111C144.57 92.856 144.674 93.747 145.371 94.111C146.068 94.475 146.798 94.167 147.529 94.111C150.648 93.798 152.486 97.311 153.384 100.174C154.47 103.659 155.561 107.14 156.656 110.616C157.143 112.196 157.965 114.055 159.677 114.257C161.257 114.452 162.601 112.957 162.838 111.472C162.945 110.223 162.803 108.965 162.42 107.772C162.172 108.28 161.779 108.704 161.291 108.99C160.803 109.276 160.242 109.411 159.677 109.38L159.673 109.394Z" fill="black"/>
<path opacity="0.1" d="M82.025 96.139C81.67 94.016 79.937 92.366 78.997 90.417C78.3928 89.1022 78.0433 87.6849 77.967 86.24C77.967 87.02 77.897 87.799 77.89 88.586C77.7461 90.8779 78.1246 93.1727 78.997 95.297C79.77 96.877 81.044 98.27 81.684 99.878C82.0216 98.6627 82.1371 97.3964 82.025 96.14V96.139Z" fill="black"/>
<path opacity="0.1" d="M164.463 81.325C163.196 87.395 161.219 93.577 161.832 99.662C162.232 95.172 163.538 90.654 164.463 86.198C165.236 82.8147 165.508 79.3363 165.271 75.874C165.12 77.7065 164.85 79.5273 164.463 81.325V81.325Z" fill="black"/>
</g>
<g opacity="0.8">
<path opacity="0.8" d="M229.755 116.835H664.891" stroke="#3F3D56" stroke-width="3" stroke-miterlimit="10"/>
<path opacity="0.8" d="M268.412 116.828C268.412 116.828 289.22 119.717 278.444 97.391C267.668 75.065 307.682 79.291 307.682 79.291" stroke="#3F3D56" stroke-width="3" stroke-miterlimit="10"/>
<path opacity="0.8" d="M406.995 116.828C406.995 116.828 427.803 113.946 417.026 136.271C406.249 158.596 446.264 154.371 446.264 154.371" stroke="#3F3D56" stroke-width="3" stroke-miterlimit="10"/>
<path opacity="0.8" d="M606.533 116.828C606.533 116.828 585.718 113.946 596.502 136.271C607.286 158.596 567.264 154.371 567.264 154.371" stroke="#3F3D56" stroke-width="3" stroke-miterlimit="10"/>
<path opacity="0.8" d="M567.263 154.364H452.447" stroke="#3F3D56" stroke-width="3" stroke-miterlimit="10"/>
<path opacity="0.8" d="M229.755 129.54C236.772 129.54 242.46 123.852 242.46 116.835C242.46 109.818 236.772 104.13 229.755 104.13C222.738 104.13 217.05 109.818 217.05 116.835C217.05 123.852 222.738 129.54 229.755 129.54Z" fill="#6C63FF"/>
<path opacity="0.8" d="M307.898 91.816C314.915 91.816 320.603 86.1278 320.603 79.111C320.603 72.0942 314.915 66.406 307.898 66.406C300.881 66.406 295.193 72.0942 295.193 79.111C295.193 86.1278 300.881 91.816 307.898 91.816Z" fill="#3ACC6C"/>
<path opacity="0.8" d="M307.898 129.54C314.915 129.54 320.603 123.852 320.603 116.835C320.603 109.818 314.915 104.13 307.898 104.13C300.881 104.13 295.193 109.818 295.193 116.835C295.193 123.852 300.881 129.54 307.898 129.54Z" fill="#6C63FF"/>
<path opacity="0.8" d="M358.327 129.54C365.344 129.54 371.032 123.852 371.032 116.835C371.032 109.818 365.344 104.13 358.327 104.13C351.31 104.13 345.622 109.818 345.622 116.835C345.622 123.852 351.31 129.54 358.327 129.54Z" fill="#6C63FF"/>
<path opacity="0.8" d="M446.474 166.882C453.491 166.882 459.179 161.194 459.179 154.177C459.179 147.16 453.491 141.472 446.474 141.472C439.457 141.472 433.769 147.16 433.769 154.177C433.769 161.194 439.457 166.882 446.474 166.882Z" fill="#FF6584"/>
<path opacity="0.8" d="M513.082 166.882C520.099 166.882 525.787 161.194 525.787 154.177C525.787 147.16 520.099 141.472 513.082 141.472C506.065 141.472 500.377 147.16 500.377 154.177C500.377 161.194 506.065 166.882 513.082 166.882Z" fill="#FF6584"/>
<path opacity="0.8" d="M509.608 129.54C516.625 129.54 522.313 123.852 522.313 116.835C522.313 109.818 516.625 104.13 509.608 104.13C502.591 104.13 496.903 109.818 496.903 116.835C496.903 123.852 502.591 129.54 509.608 129.54Z" fill="#6C63FF"/>
<path opacity="0.8" d="M661.675 129.54C668.692 129.54 674.38 123.852 674.38 116.835C674.38 109.818 668.692 104.13 661.675 104.13C654.658 104.13 648.97 109.818 648.97 116.835C648.97 123.852 654.658 129.54 661.675 129.54Z" fill="#6C63FF"/>
<path opacity="0.8" d="M599.467 129.54C606.484 129.54 612.172 123.852 612.172 116.835C612.172 109.818 606.484 104.13 599.467 104.13C592.45 104.13 586.762 109.818 586.762 116.835C586.762 123.852 592.45 129.54 599.467 129.54Z" fill="#6C63FF"/>
</g>
<g opacity="0.1">
<path opacity="0.1" d="M60.107 123.01C60.107 123.01 8.05899 101.123 1.23699 140.615C1.23699 140.615 -2.32 146.769 2.629 151.851C2.629 151.851 3.694 149.122 8.72 151.942C10.5154 152.935 12.4224 153.711 14.401 154.253C17.0729 154.99 19.9118 154.838 22.49 153.821V153.821C22.49 153.821 39.608 152.895 54.005 130.5C54.005 130.5 60.18 126.685 60.486 125.251L50.169 125.951C50.169 125.951 50.963 133.504 46.688 138.036C46.688 138.036 50.475 126.313 48.658 125.986C48.289 125.916 43.207 126.586 43.207 126.586C43.207 126.586 44.523 139.722 37.638 146.517C37.638 146.517 44.029 133.158 41.251 126.823L33.635 128.292C33.635 128.292 35.723 142.111 28.191 150.144C28.191 150.144 34.391 135.944 31.991 128.73L24.702 131.18C24.702 131.18 26.456 144.692 20.156 151.368C20.156 151.368 25.656 134.236 23.066 131.876C23.066 131.876 16.508 134.535 15.109 136.053C15.109 136.053 16.146 145.799 12.143 149.315C12.143 149.315 14.6 137.48 13.382 136.993C13.382 136.993 5.766 142.729 3.441 147.679C3.441 147.679 6.341 140.119 12.428 135.844C12.428 135.844 7.311 134.981 3.378 137.118C3.378 137.118 6.009 132.099 14.273 134.48C14.273 134.48 20.392 130.24 21.617 130.303C21.617 130.303 13.799 126.822 8.15299 127.254C8.15299 127.254 14.21 123.773 23.524 129.586L30.799 126.962C30.799 126.962 20.705 121.79 15.651 121.81C15.651 121.81 22.376 119.21 32.686 126.446L40.135 124.928C40.135 124.928 31.781 119.811 26.149 118.621C26.149 118.621 32.902 117.549 42.286 124.573L47.375 124.148C47.375 124.148 41.214 120.514 39.348 119.63C37.482 118.746 37.566 118.175 37.566 118.175C41.9934 118.933 46.1238 120.905 49.498 123.87C49.498 123.87 60.069 123.657 60.107 123.01Z" fill="#6C63FF"/>
</g>
<g opacity="0.1">
<path opacity="0.1" d="M58.188 83.775C58.188 83.775 39.754 41.122 13.196 60.684C13.196 60.684 7.585 62.313 7.627 68.133C7.627 68.133 9.813 67.117 11.198 71.663C11.7059 73.2749 12.407 74.8195 13.286 76.263C14.448 78.2256 16.2206 79.7538 18.333 80.614C18.333 80.614 29.033 89.814 50.356 84.714C50.356 84.714 56.204 85.96 57.199 85.292L50.683 79.813C50.683 79.813 46.847 84.756 41.71 84.992C41.71 84.992 50.642 80.192 49.751 78.956C49.57 78.705 46.166 76.213 46.166 76.213C46.166 76.213 39.466 84.762 31.547 84.894C31.547 84.894 42.957 80.594 44.913 75.252L39.553 71.771C39.553 71.771 32.793 81.171 23.743 81.663C23.743 81.663 35.515 76.755 38.202 71.102L32.473 68.408C32.473 68.408 25.818 77.458 18.292 77.799C18.292 77.799 31.324 70.754 31.122 67.879C31.122 67.879 25.713 65.721 23.993 65.846C23.993 65.846 19.071 72.216 14.679 72.035C14.679 72.035 22.887 66.403 22.441 65.422C22.441 65.422 14.641 64.489 10.446 66.122C10.446 66.122 16.475 63.282 22.524 64.215C22.524 64.215 19.976 60.783 16.433 59.829C16.433 59.829 20.861 58.346 24.411 64.458C24.411 64.458 30.454 65.433 31.164 66.158C31.164 66.158 28.512 59.621 24.899 56.676C24.899 56.676 30.468 58.068 32.699 66.819L38.519 69.402C38.519 69.402 35.47 60.575 32.449 57.714C32.449 57.714 37.928 59.997 39.933 70.175L45.224 73.51C45.224 73.51 43.177 65.71 40.511 61.794C40.511 61.794 45.133 65.01 46.7 74.527L49.972 77.172C49.972 77.172 48.378 71.505 47.772 69.918C47.166 68.331 47.542 68.038 47.542 68.038C49.741 71.0229 51.0646 74.5616 51.364 78.257C51.364 78.257 57.792 84.13 58.188 83.775Z" fill="#6C63FF"/>
</g>
<path fill-rule="evenodd" clip-rule="evenodd" d="M335.2 24.1C334.8 24.1 334.7 23.9 334.9 23.6L337 20.9C337.2 20.6 337.7 20.4 338.1 20.4H373.8C374.2 20.4 374.3 20.7 374.1 21L372.4 23.6C372.2 23.9 371.7 24.2 371.4 24.2L335.2 24.1Z" fill="#00ACD7"/>
<path fill-rule="evenodd" clip-rule="evenodd" d="M320.1 33.3C319.7 33.3 319.6 33.1 319.8 32.8L321.9 30.1C322.1 29.8 322.6 29.6 323 29.6H368.6C369 29.6 369.2 29.9 369.1 30.2L368.3 32.6C368.2 33 367.8 33.2 367.4 33.2L320.1 33.3Z" fill="#00ACD7"/>
<path fill-rule="evenodd" clip-rule="evenodd" d="M344.3 42.5C343.9 42.5 343.8 42.2 344 41.9L345.4 39.4C345.6 39.1 346 38.8 346.4 38.8H366.4C366.8 38.8 367 39.1 367 39.5L366.8 41.9C366.8 42.3 366.4 42.6 366.1 42.6L344.3 42.5Z" fill="#00ACD7"/>
<path fill-rule="evenodd" clip-rule="evenodd" d="M448.1 22.3C441.8 23.9 437.5 25.1 431.3 26.7C429.8 27.1 429.7 27.2 428.4 25.7C426.9 24 425.8 22.9 423.7 21.9C417.4 18.8 411.3 19.7 405.6 23.4C398.8 27.8 395.3 34.3 395.4 42.4C395.5 50.4 401 57 408.9 58.1C415.7 59 421.4 56.6 425.9 51.5C426.8 50.4 427.6 49.2 428.6 47.8C425 47.8 420.5 47.8 409.3 47.8C407.2 47.8 406.7 46.5 407.4 44.8C408.7 41.7 411.1 36.5 412.5 33.9C412.8 33.3 413.5 32.3 415 32.3H451.4C451.2 35 451.2 37.7 450.8 40.4C449.7 47.6 447 54.2 442.6 60C435.4 69.5 426 75.4 414.1 77C404.3 78.3 395.2 76.4 387.2 70.4C379.8 64.8 375.6 57.4 374.5 48.2C373.2 37.3 376.4 27.5 383 18.9C390.1 9.6 399.5 3.7 411 1.6C420.4 -0.0999964 429.4 1 437.5 6.5C442.8 10 446.6 14.8 449.1 20.6C449.7 21.5 449.3 22 448.1 22.3V22.3Z" fill="#00ACD7"/>
<path d="M481.2 77.6C472.1 77.4 463.8 74.8 456.8 68.8C450.9 63.7 447.2 57.2 446 49.5C444.2 38.2 447.3 28.2 454.1 19.3C461.4 9.7 470.2 4.7 482.1 2.6C492.3 0.8 501.9 1.8 510.6 7.7C518.5 13.1 523.4 20.4 524.7 30C526.4 43.5 522.5 54.5 513.2 63.9C506.6 70.6 498.5 74.8 489.2 76.7C486.5 77.2 483.8 77.3 481.2 77.6V77.6ZM505 37.2C504.9 35.9 504.9 34.9 504.7 33.9C502.9 24 493.8 18.4 484.3 20.6C475 22.7 469 28.6 466.8 38C465 45.8 468.8 53.7 476 56.9C481.5 59.3 487 59 492.3 56.3C500.2 52.2 504.5 45.8 505 37.2V37.2Z" fill="#00ACD7"/>
<g clip-path="url(#clip1)">
<path d="M541.266 255.47C541.676 256.448 542.474 257.233 543.411 257.794C544.348 258.355 545.405 258.705 546.437 258.869C547.468 259.033 548.484 259.01 549.491 258.754C550.498 258.498 551.689 258.085 552.539 257.362C553.39 256.64 553.691 255.739 553.872 254.911C554.052 254.082 554.196 253.147 554.748 252.02C555.301 250.894 555.797 249.751 555.754 248.918C555.71 248.085 555.513 247.321 555.149 246.664C554.785 246.007 554.288 245.517 553.692 245.174C553.095 244.831 552.398 244.634 551.629 244.568C550.86 244.503 550.019 244.568 549.132 244.76C548.244 244.953 547.312 245.273 546.362 245.737C545.413 246.201 544.534 246.768 543.764 247.425C542.994 248.083 542.332 248.832 541.841 249.653C541.35 250.474 541.031 251.367 540.952 252.282C540.873 253.196 540.855 254.492 541.266 255.47V255.47Z" fill="#96D6FF"/>
<path d="M546.833 244.906C547.606 244.598 548.365 244.372 549.098 244.222C550.074 244.022 551.001 243.956 551.85 244.029C552.699 244.101 553.469 244.311 554.131 244.681C554.793 245.051 555.347 245.58 555.76 246.29C556.172 247 556.406 247.828 556.471 248.732C556.535 249.636 556.185 250.791 555.562 252.018C554.939 253.245 554.767 254.274 554.577 255.172C554.387 256.066 553.791 256.887 552.705 257.572C552.579 257.65 552.307 257.318 552.402 257.231C553.246 256.477 553.452 255.579 553.736 254.834C553.916 254.029 554.059 253.119 554.602 252.021C555.146 250.924 555.635 249.811 555.596 249C555.557 248.189 555.368 247.444 555.015 246.804C554.663 246.164 554.179 245.688 553.597 245.354C553.016 245.02 552.335 244.827 551.583 244.763C550.831 244.699 550.009 244.762 549.14 244.95C548.705 245.044 548.258 245.17 547.805 245.328C547.351 245.486 546.89 245.676 546.424 245.902C545.494 246.355 544.635 246.907 543.881 247.548C543.127 248.189 542.479 248.921 541.998 249.72C541.518 250.519 541.206 251.388 541.127 252.277C541.049 253.167 541.026 254.426 541.423 255.377C541.748 256.158 542.319 256.821 543.038 257.318C543.171 257.411 542.629 257.982 542.222 257.732C541.461 257.265 540.944 256.517 540.614 255.726C540.169 254.655 540.108 253.297 540.185 252.295C540.262 251.293 540.603 250.318 541.133 249.429C541.664 248.539 542.38 247.734 543.218 247.033C544.056 246.331 545.015 245.731 546.055 245.243C546.316 245.121 546.575 245.009 546.833 244.906L546.833 244.906Z" fill="#394655"/>
<path d="M553.678 250.09C553.542 249.873 553.194 249.801 552.655 249.947C551.837 250.17 550.901 251.077 550.385 251.77C550.102 252.15 549.782 252.517 549.619 252.966C549.564 253.118 549.515 253.272 549.557 253.484C549.744 253.448 549.885 253.209 549.981 253.025C550.356 252.303 550.884 251.658 551.566 251.184C552.14 250.786 552.212 250.501 552.79 250.256C553.155 250.102 553.367 250.187 553.678 250.09V250.09Z" fill="#394655"/>
<path d="M550.484 251.629C550.325 251.457 550.625 251.984 550.824 252.05C551.569 252.299 552.285 252.633 553.02 252.91C553.26 253 553.328 252.752 553.126 252.623C552.921 252.493 552.708 252.405 552.485 252.322C552.276 252.246 552.05 252.216 551.848 252.124C551.459 251.949 551.249 251.712 550.871 251.514C550.741 251.446 550.568 251.72 550.484 251.629L550.484 251.629Z" fill="#394655"/>
<path d="M578.095 323.525C578.614 324.67 579.225 325.425 579.917 325.871C580.61 326.316 581.385 326.459 582.241 326.451C583.096 326.443 584.035 326.293 585.027 326.108C586.018 325.923 587.058 325.694 588.098 325.454C589.137 325.213 590.096 324.918 590.942 324.57C591.788 324.222 592.525 323.826 593.1 323.37C593.675 322.915 594.086 322.396 594.261 321.78C594.437 321.164 594.376 320.449 594.016 319.621C593.657 318.792 593.173 318.256 592.606 317.961C592.038 317.667 591.388 317.617 590.677 317.73C589.965 317.844 589.192 318.12 588.342 318.429C587.491 318.737 586.557 319.069 585.507 319.299C584.458 319.528 583.312 319.561 582.225 319.591C581.137 319.621 580.113 319.655 579.313 319.846C578.513 320.036 577.939 320.381 577.705 320.969C577.471 321.557 577.575 322.381 578.095 323.525V323.525Z" fill="#E1D6B9"/>
<path d="M578.809 319.339C579.544 319.096 580.464 318.971 581.472 318.871C582.624 318.757 583.884 318.672 585.093 318.407C586.302 318.141 587.383 317.788 588.378 317.48C589.372 317.171 590.287 316.917 591.137 316.853C591.987 316.79 592.773 316.917 593.456 317.294C594.139 317.672 594.717 318.296 595.138 319.192C595.559 320.088 595.642 320.91 595.453 321.647C595.263 322.385 594.803 323.041 594.151 323.628C593.499 324.214 592.659 324.736 591.691 325.188C590.724 325.64 589.626 326.015 588.431 326.296C587.236 326.578 586.081 326.813 585.004 326.99C583.928 327.166 582.933 327.288 582.031 327.242C581.688 327.225 581.357 327.181 581.04 327.107C580.398 326.956 579.909 325.629 580.524 325.919C581.094 326.187 581.716 326.283 582.392 326.277C583.215 326.269 584.117 326.125 585.071 325.947C586.025 325.769 587.025 325.549 588.025 325.317C589.025 325.086 589.947 324.803 590.76 324.468C591.574 324.133 592.283 323.752 592.836 323.314C593.389 322.875 593.784 322.376 593.953 321.783C594.122 321.191 594.064 320.504 593.718 319.707C593.372 318.911 592.907 318.394 592.361 318.111C591.815 317.828 591.19 317.779 590.506 317.889C589.821 317.998 589.078 318.264 588.26 318.561C587.441 318.857 586.543 319.177 585.534 319.397C584.524 319.618 583.423 319.65 582.376 319.679C581.33 319.707 580.346 319.741 579.576 319.924C579.48 319.947 579.387 319.972 579.298 319.999C579.068 320.07 578.86 320.152 578.686 320.265C578.485 320.395 577.893 319.666 578.506 319.451C578.605 319.416 578.704 319.374 578.809 319.339L578.809 319.339Z" fill="#394655"/>
<path d="M581.945 351.145C584.629 353.734 585.214 357.541 586.408 360.116C587.601 362.692 589.39 364.022 590.797 365.05C592.204 366.078 593.341 366.685 594.297 366.684C595.253 366.684 596.017 366.089 596.616 364.721C597.215 363.353 597.198 362.023 596.729 360.651C596.259 359.279 595.325 357.876 594.156 356.206C592.987 354.535 591.648 352.554 589.579 350.574C587.509 348.595 584.835 346.362 581.091 344.529C577.347 342.697 573.09 341.683 569.413 340.92C565.737 340.158 562.622 339.646 560.202 339.31C557.783 338.975 556.012 338.841 554.793 338.93C553.573 339.018 552.898 339.327 552.794 339.849C552.691 340.371 553.305 340.979 554.649 341.627C555.993 342.274 558.096 342.952 560.974 343.648C563.852 344.345 567.556 345.025 571.407 346.079C575.258 347.134 579.261 348.557 581.945 351.145V351.145Z" fill="#394655"/>
<path d="M582.274 350.067C584.768 352.12 585.842 355.041 586.734 357.649C587.626 360.258 588.885 362.009 590.182 363.131C591.478 364.253 592.617 364.938 593.513 365.114C594.409 365.291 595.096 364.927 595.592 363.809C596.088 362.69 595.965 361.559 595.409 360.354C594.854 359.149 593.869 357.867 592.75 356.259C591.63 354.651 590.395 352.71 588.517 350.852C586.638 348.995 584.19 347.055 581.062 345.441C577.934 343.826 574.429 342.864 571.311 342.159C568.194 341.454 565.463 340.996 563.312 340.673C561.16 340.35 559.559 340.179 558.473 340.176C557.387 340.172 556.808 340.337 556.763 340.68C556.717 341.023 557.351 341.45 558.633 341.926C559.914 342.401 561.865 342.917 564.402 343.499C566.938 344.08 570.084 344.712 573.308 345.685C576.532 346.657 579.779 348.014 582.274 350.067V350.067Z" fill="#E1D6B9"/>
<path d="M537.625 253.535C537.983 253.535 538.341 253.54 538.7 253.549C550.773 253.867 564.299 255.157 573.161 264.993C582.429 275.281 587.515 289.755 585.149 303.02C584.103 308.881 582.05 316.982 580.142 320.632C578.134 324.473 574.552 324.2 574.488 324.753C574.217 327.076 582.576 324.763 587.448 329.709C591.417 333.739 592.661 341.201 592.757 346.544C592.78 347.831 592.749 349.163 592.651 350.507C588.561 360.536 579.192 366.616 563.068 370.894C558.453 372.118 553.759 372.825 549.143 373.155C539.562 372.762 530.009 371.425 520.881 368.282C511.665 365.11 505.036 356.74 499.779 347.43C491.46 332.7 489.688 314.646 492.07 297.627C494.062 283.389 495.36 273.079 506.808 264.672C515.937 257.968 526.522 253.531 537.625 253.535V253.535Z" fill="#394655"/>
<path d="M537.683 255.135C549.817 255.217 563.494 256.428 572.391 266.361C580.664 275.598 584.726 288.141 583.815 300.128C583.293 306.996 582.615 313.362 579.486 319.467C577.396 323.545 572.244 324.25 572.219 325.523C572.202 326.38 575.836 326.169 582.509 328.158C587.655 329.692 588.46 332.519 590.401 337.993C591.401 340.814 591.427 344.034 591.492 347.045C591.519 348.35 591.446 349.666 591.289 350.977C586.841 359.956 577.655 365.566 562.507 369.585C556.889 371.075 551.155 371.8 545.586 372.011C538.976 371.565 532.413 370.555 526.028 368.789C515.718 365.936 507.557 357.66 501.611 347.409C493.255 333.003 491.398 315.347 493.322 298.521C494.958 284.22 496.435 273.996 507.992 265.786C516.876 259.475 526.96 255.063 537.683 255.135V255.135Z" fill="#96D6FF"/>
<path d="M589.222 333.952C586.96 328.886 579.825 325.613 572.315 326.516C562.032 327.751 542.115 334.749 541.598 334.263C550.9 329.938 564.374 326.854 573.392 324.258C576.547 323.349 578.854 321.522 580.195 318.355C580.195 318.355 578.947 321.175 578.854 321.246C578.76 321.316 576.655 322.929 576.655 322.929C576.655 322.929 574.738 323.912 574.597 323.982C574.457 324.052 573.241 324.941 573.241 324.941C573.241 324.941 573.849 325.385 574.083 325.455C574.317 325.525 574.925 325.923 575.393 325.97C575.86 326.016 577.404 326.157 578.76 326.367C580.117 326.578 583.016 327.279 583.695 327.607C584.373 327.934 585.846 328.752 585.916 328.869C585.987 328.986 589.222 333.952 589.222 333.952V333.952Z" fill="#394655"/>
<path d="M553.025 364.221C554.169 364.013 555.064 364.08 555.768 364.372C556.471 364.664 556.988 365.178 557.432 365.833C557.877 366.487 558.257 367.28 558.638 368.131C559.019 368.983 559.393 369.894 559.757 370.811C560.122 371.728 560.402 372.611 560.583 373.438C560.763 374.265 560.85 375.033 560.807 375.71C560.763 376.388 560.585 376.973 560.209 377.431C559.833 377.889 559.257 378.219 558.438 378.382C557.619 378.544 556.957 378.459 556.434 378.183C555.911 377.906 555.531 377.438 555.243 376.837C554.954 376.237 554.758 375.504 554.545 374.694C554.331 373.885 554.092 373 553.714 372.082C553.336 371.163 552.758 370.275 552.208 369.432C551.658 368.589 551.145 367.793 550.869 367.084C550.592 366.376 550.553 365.757 550.877 365.27C551.201 364.783 551.882 364.428 553.025 364.221V364.221Z" fill="#E1D6B9"/>
<path d="M550.219 366.968C550.421 367.654 550.81 368.42 551.265 369.238C551.784 370.174 552.383 371.177 552.818 372.236C553.252 373.295 553.553 374.303 553.842 375.222C554.131 376.14 554.419 376.969 554.819 377.649C555.218 378.329 555.728 378.859 556.375 379.18C557.021 379.501 557.8 379.612 558.703 379.46C559.606 379.309 560.274 378.939 560.735 378.406C561.196 377.874 561.452 377.179 561.555 376.374C561.658 375.57 561.613 374.656 561.447 373.683C561.281 372.709 560.989 371.677 560.573 370.62C560.158 369.564 559.729 368.562 559.297 367.65C558.864 366.739 558.433 365.919 557.923 365.257C557.73 365.005 557.522 364.777 557.298 364.575C556.846 364.166 555.58 364.492 556.124 364.808C556.628 365.1 556.792 365.485 557.134 366.004C557.55 366.637 557.848 367.452 558.183 368.234C558.518 369.015 559.136 369.753 559.465 370.568C559.794 371.383 560.044 372.173 560.204 372.927C560.364 373.682 560.439 374.4 560.397 375.038C560.355 375.676 560.191 376.232 559.846 376.659C559.5 377.086 558.973 377.383 558.244 377.526C557.516 377.669 556.942 377.589 556.509 377.327C556.076 377.065 556.044 376.328 555.839 375.773C555.634 375.217 555.312 374.537 555.129 373.821C554.945 373.106 554.639 372.648 554.197 371.86C553.756 371.072 553.078 370.299 552.456 369.499C551.834 368.699 551.333 367.925 551.067 367.243C551.034 367.158 551.004 367.074 550.978 366.992C550.911 366.78 550.864 366.578 550.858 366.387C550.851 366.165 549.985 366.099 550.144 366.678C550.169 366.772 550.19 366.869 550.219 366.967L550.219 366.968Z" fill="#394655"/>
<path d="M504.129 265.125C504.954 266.237 505.316 267.528 505.356 268.788C505.395 270.047 505.132 271.265 504.687 272.329C504.241 273.393 503.606 274.313 502.727 275.061C501.847 275.809 500.69 276.619 499.397 276.881C498.105 277.144 496.937 276.747 495.901 276.253C494.864 275.759 493.705 275.099 492.102 274.694C490.499 274.289 488.924 273.844 487.987 273.084C487.051 272.324 486.276 271.463 485.713 270.516C485.15 269.57 484.85 268.625 484.773 267.705C484.697 266.785 484.844 265.889 485.193 265.051C485.541 264.212 486.09 263.432 486.831 262.752C487.572 262.073 488.505 261.495 489.638 261.069C490.77 260.643 491.999 260.41 493.27 260.361C494.541 260.312 495.857 260.448 497.134 260.768C498.412 261.089 499.65 261.595 500.743 262.292C501.837 262.989 503.304 264.012 504.129 265.125V265.125Z" fill="#96D6FF"/>
<path d="M488.423 260.84C487.589 261.262 486.874 261.77 486.273 262.339C485.472 263.099 484.876 263.968 484.494 264.898C484.112 265.828 483.944 266.817 484.017 267.831C484.09 268.845 484.404 269.882 485 270.919C485.596 271.957 486.419 272.902 487.419 273.731C488.418 274.56 489.919 275.149 491.662 275.542C493.405 275.934 494.677 276.625 495.786 277.145C496.892 277.662 498.136 277.702 499.526 277.188C499.686 277.129 499.488 276.632 499.336 276.656C498.011 276.885 496.897 276.389 495.892 276.059C494.879 275.579 493.748 274.936 492.181 274.543C490.615 274.15 489.076 273.717 488.161 272.977C487.245 272.238 486.487 271.398 485.936 270.476C485.385 269.554 485.093 268.633 485.018 267.736C484.944 266.838 485.087 265.962 485.428 265.143C485.769 264.324 486.306 263.562 487.032 262.897C487.395 262.565 487.806 262.256 488.264 261.979C488.721 261.702 489.226 261.455 489.78 261.246C490.888 260.828 492.087 260.6 493.329 260.551C494.571 260.502 495.857 260.634 497.103 260.946C498.35 261.258 499.557 261.752 500.624 262.432C501.69 263.112 503.122 264.108 503.928 265.192C504.59 266.082 504.963 267.086 505.067 268.102C505.086 268.292 506.029 268.204 506.007 267.653C505.965 266.626 505.474 265.622 504.812 264.738C503.916 263.543 502.443 262.428 501.26 261.674C500.078 260.921 498.739 260.377 497.361 260.039C495.983 259.7 494.57 259.564 493.203 259.63C491.837 259.697 490.515 259.965 489.297 260.447C488.993 260.568 488.701 260.699 488.423 260.84L488.423 260.84Z" fill="#394655"/>
<path d="M491.948 268.409C492.002 268.018 492.445 267.693 493.298 267.555C494.594 267.346 496.493 268.025 497.662 268.672C498.304 269.027 498.991 269.339 499.507 269.868C499.682 270.048 499.849 270.233 499.925 270.558C499.64 270.628 499.287 270.381 499.035 270.183C498.044 269.405 496.888 268.834 495.624 268.602C494.56 268.407 494.276 268.052 493.306 268.077C492.692 268.092 492.449 268.348 491.948 268.409V268.409Z" fill="#394655"/>
<path d="M497.434 268.537C497.547 268.193 497.462 269.127 497.224 269.347C496.332 270.174 495.537 271.104 494.678 271.964C494.398 272.244 494.143 271.938 494.346 271.628C494.551 271.312 494.795 271.052 495.057 270.793C495.302 270.551 495.602 270.365 495.828 270.107C496.263 269.611 496.409 269.142 496.815 268.622C496.954 268.444 497.373 268.72 497.433 268.537L497.434 268.537Z" fill="#394655"/>
<g opacity="0.07">
<path d="M581.332 315.113C575.479 316.677 568.832 318.19 562.649 319.445C549.74 322.064 544.875 328.987 541.882 333.851L543.701 333.406C553.397 329.356 563.745 327.26 573.727 324.075C576.928 323.156 579.299 320.495 580.475 317.458C580.789 316.684 581.072 315.902 581.332 315.113V315.113Z" fill="#1E1E1E"/>
<path d="M519.421 259.159C516.24 260.576 513.188 262.297 510.308 264.2C508.874 265.287 507.12 266.068 505.953 267.457C505.977 267.621 505.891 267.764 505.764 267.867C505.589 268.975 505.403 270.083 505.212 271.176C503.716 279.782 496.232 272.112 491.742 271.176C488.957 270.596 486.535 268.213 487.461 262.515C487.043 262.842 486.654 263.213 486.299 263.633C484.902 265.228 484.696 267.68 485.443 269.604C486.561 271.615 488.217 273.633 490.582 274.133C492.678 274.652 494.627 275.571 496.62 276.365C497.516 276.755 498.671 276.527 499.469 277.007C498.825 277.442 497.756 277.333 497.541 278.293C495.033 284.233 494.241 290.719 493.426 297.065C492.468 304.829 492.418 312.696 493.112 320.483C494.452 332.621 498.616 344.607 506.173 354.298C511.453 361.281 518.702 367.159 527.369 369.179C533.315 370.643 539.393 371.696 545.513 372.01C547.769 371.904 550.061 371.876 552.281 371.474C552.382 370.728 551.589 369.998 551.356 369.292C550.974 368.386 550.246 367.47 550.256 366.477C550.822 366.069 550.743 365.207 551.489 364.917C552.958 363.972 554.886 364.277 556.5 364.452C558.022 364.591 558.391 366.355 559.113 367.423C559.675 368.241 559.753 369.506 560.584 370.085C567.508 368.359 574.437 366.145 580.563 362.401C585.075 359.609 588.957 355.71 591.386 350.97C591.302 348.889 591.412 346.782 591.393 344.687C581.744 347.31 565.531 351.703 557.41 353.121C545.624 355.179 531.779 355.553 517.56 345.076C500.177 332.267 505.773 284.272 508.206 274.918C509.475 270.035 512.943 264.693 519.421 259.159H519.421Z" fill="#1E1E1E"/>
<path d="M535.101 337.667C535.101 337.667 539.334 341.967 541.318 342.76C543.303 343.554 547.205 345.869 549.256 346.928C551.306 347.986 551.439 349.772 555.738 348.118C560.038 346.465 561.493 345.274 564.469 344.811C567.446 344.348 569.563 344.546 571.547 343.687C573.531 342.827 578.294 340.644 579.617 339.916C580.94 339.189 582.329 339.189 583.519 338.792C584.71 338.395 588.348 338.726 589.009 337.733C589.671 336.741 590.068 336.609 589.869 335.881C589.671 335.154 587.885 331.648 585.636 331.119C583.387 330.59 581.469 330.457 575.317 330.59C569.166 330.722 570.026 330.259 564.271 331.846C558.516 333.434 560.104 334.889 553.754 335.484C547.404 336.08 548.925 336.08 545.419 335.947C541.914 335.815 542.112 335.881 539.863 335.484C537.614 335.088 535.101 337.667 535.101 337.667Z" fill="#1E1E1E"/>
<path d="M575.648 339.85C579.881 341.504 580.41 351.029 580.41 351.029C580.41 351.029 581.535 351.955 581.601 350.83C583.116 348.768 579.247 338.12 577.698 339.122L575.648 339.85Z" fill="#1E1E1E"/>
<path d="M546.769 245.622C545.893 246.016 545.061 246.512 544.296 247.085C542.762 248.258 541.418 249.877 541.081 251.828C541.003 252.425 540.98 253.038 540.994 253.635C541.139 253.824 541.462 253.709 541.681 253.761C542.635 253.805 543.589 253.858 544.542 253.922C543.723 252.055 543.905 249.095 546.769 245.622V245.622Z" fill="#1E1E1E"/>
</g>
<path d="M582.252 316.795C587.358 315.546 591.788 319.546 591.568 326.013C591.407 330.769 590.397 334.891 585.368 336.421C582.83 337.193 579.564 336.496 577.369 334.718C573.274 336.389 569.337 337.373 565.878 338.408C564.462 341.31 562.771 343.331 557.786 344.377C552.641 345.456 548.49 343.162 547.727 336.737C546.675 327.866 550.364 324.1 554.769 322.608C558.73 321.266 577.393 318.37 582.252 316.795V316.795Z" fill="#DEE3E8"/>
<path d="M579.125 323.354C579.157 323.354 579.183 323.375 579.204 323.42C577.801 329.22 581.42 335.793 584.443 335.815C588.253 335.843 590.149 332.742 591.058 330.275C590.364 333.117 588.805 335.375 585.368 336.421C582.83 337.193 579.564 336.496 577.369 334.717C577.16 334.803 576.954 334.879 576.746 334.961C576.075 331.513 578.514 323.357 579.125 323.354V323.354Z" fill="#C4CBD2"/>
<path d="M549.881 329.949C549.923 329.949 549.958 329.972 549.986 330.02C548.142 336.191 552.896 343.186 556.867 343.209C565.163 343.259 566.576 334.151 566.576 334.151C566.576 334.151 566.352 336.534 565.441 339.248C564.09 341.701 562.274 343.435 557.786 344.377C552.641 345.456 548.49 343.162 547.727 336.737C547.66 336.174 547.613 335.632 547.584 335.11C548.39 332.324 549.462 329.951 549.881 329.949Z" fill="#C4CBD2"/>
<path d="M583.133 317.434C585.519 317.387 586.08 317.621 586.08 317.621C586.08 317.621 583.274 318.088 577.24 319.398C571.207 320.708 557.458 323.63 556.006 324.356C553.76 325.478 553.33 325.659 551.469 328.519C550.283 330.34 548.662 333.289 548.616 332.822C548.569 332.354 549.823 327.059 551.188 325.478C553.061 323.311 556.801 322.719 558.438 322.298C560.075 321.877 583.133 317.434 583.133 317.434V317.434Z" fill="white"/>
<path d="M575.229 321.877L574.995 323.608L570.598 324.262C570.598 324.262 570.832 322.345 571.019 322.345C571.207 322.345 575.229 321.877 575.229 321.877Z" fill="#C4CBD2"/>
<path d="M575.234 321.911L574.142 320.687L574.671 322.241L575.234 321.911Z" fill="#C4CBD2"/>
<path d="M572.522 321.084C572.753 321.1 574.059 322.208 573.977 322.258C573.894 322.307 573.282 321.944 572.902 321.778C572.522 321.613 572.092 321.729 572.191 321.514C572.29 321.299 572.522 321.084 572.522 321.084Z" fill="#C4CBD2"/>
<path d="M571.133 322.407C570.967 322.258 570.19 321.53 570.19 321.53L571.182 322.721L571.133 322.407Z" fill="#C4CBD2"/>
<path d="M570.736 324.16L569.462 323.961L570.736 324.242V324.16Z" fill="#C4CBD2"/>
<path d="M572.621 321.464C577.681 321.729 575.895 333.47 576.623 335.818C588.86 339.489 582.377 369.883 589.686 371.47C596.996 373.058 611.713 372.165 611.713 372.165" stroke="#444444" stroke-width="1.32292" stroke-linecap="round"/>
<path d="M509.383 293.813C509.471 296.754 510.205 299.593 511.452 302.226C512.698 304.859 514.456 307.288 516.589 309.393C518.722 311.497 521.229 313.277 523.979 314.587C526.73 315.897 529.723 316.738 532.839 316.949C535.956 317.159 538.9 316.718 541.563 315.721C544.227 314.723 546.609 313.171 548.592 311.18C550.575 309.19 552.159 306.762 553.224 304.031C554.289 301.3 554.835 298.266 554.745 295.076C554.656 291.886 553.94 288.845 552.726 286.101C551.512 283.356 549.8 280.908 547.715 278.882C545.63 276.856 543.171 275.252 540.456 274.171C537.74 273.09 534.767 272.53 531.65 272.573C528.532 272.617 525.565 273.256 522.868 274.354C520.17 275.451 517.743 277.009 515.715 278.916C513.687 280.823 512.059 283.08 510.961 285.592C509.863 288.105 509.295 290.872 509.383 293.813V293.813Z" fill="#394655"/>
<path d="M510.917 293.142C510.917 295.909 511.518 298.624 512.612 301.176C513.707 303.727 515.296 306.114 517.266 308.194C519.237 310.274 521.588 312.045 524.192 313.347C526.796 314.648 529.652 315.479 532.629 315.689C535.606 315.899 538.421 315.468 540.963 314.508C543.505 313.549 545.775 312.062 547.666 310.17C549.556 308.278 551.068 305.98 552.092 303.41C553.116 300.839 553.652 297.995 553.59 295.021C553.528 292.046 552.875 289.225 551.752 286.687C550.63 284.148 549.037 281.892 547.094 280.023C545.151 278.153 542.858 276.67 540.324 275.654C537.791 274.638 535.016 274.088 532.105 274.073C529.193 274.058 526.418 274.577 523.89 275.515C521.361 276.453 519.078 277.812 517.157 279.504C515.236 281.197 513.677 283.225 512.598 285.52C511.518 287.814 510.917 290.374 510.917 293.142Z" fill="white"/>
<path d="M534.656 299.169C531.269 299.169 528.522 296.423 528.522 293.035C528.522 289.647 531.269 286.901 534.656 286.901C538.044 286.901 540.791 289.647 540.791 293.035C540.791 296.423 538.044 299.169 534.656 299.169Z" fill="#394455"/>
<path d="M537.372 293.236C535.705 293.236 534.355 291.886 534.355 290.219C534.355 288.553 535.705 287.203 537.372 287.203C539.038 287.203 540.388 288.553 540.388 290.219C540.388 291.886 539.038 293.236 537.372 293.236Z" fill="white"/>
<path d="M573.786 277.091C572.902 278.88 572.266 280.904 571.889 283.06C571.512 285.215 571.423 287.507 571.664 289.757C571.904 292.008 572.459 294.203 573.205 296.141C573.951 298.079 574.876 299.758 576.02 301.084C577.164 302.41 578.443 303.271 579.866 303.745C581.288 304.219 583.129 304.913 584.707 304.634C586.285 304.355 587.936 303.713 589.519 302.706C591.102 301.699 592.616 300.325 593.915 298.587C595.213 296.85 596.172 294.912 596.754 292.893C597.336 290.875 597.541 288.775 597.36 286.713C597.179 284.651 596.267 281.931 595.338 280.059C594.409 278.187 593.116 276.465 591.519 275.013C589.921 273.561 588.174 272.516 586.429 271.877C584.684 271.237 582.942 271.004 581.346 271.182C579.749 271.359 578.28 271.943 577.009 272.929C575.739 273.916 574.67 275.303 573.786 277.091V277.091Z" fill="#394655"/>
<path d="M574.462 277.507C573.575 279.151 572.894 281.031 572.472 283.055C572.051 285.08 571.921 287.254 572.157 289.399C572.392 291.545 572.981 293.649 573.768 295.504C574.554 297.359 575.52 298.964 576.655 300.224C577.791 301.485 579.013 302.294 580.341 302.733C581.669 303.172 583.485 303.871 584.907 303.592C586.329 303.314 587.815 302.695 589.24 301.738C590.666 300.781 592.03 299.484 593.198 297.851C594.367 296.218 595.226 294.404 595.743 292.517C596.259 290.631 596.433 288.673 596.256 286.751C596.078 284.828 595.2 282.234 594.34 280.487C593.48 278.74 592.29 277.134 590.825 275.777C589.361 274.42 587.766 273.441 586.179 272.838C584.593 272.235 583.023 272.01 581.562 272.157C580.101 272.304 578.752 272.823 577.564 273.714C576.377 274.604 575.349 275.862 574.462 277.507V277.507Z" fill="white"/>
<path d="M589.55 289.886C587.73 288.742 587.183 286.34 588.327 284.52C589.471 282.701 591.873 282.153 593.693 283.297C595.512 284.441 596.06 286.843 594.916 288.663C593.772 290.483 591.37 291.03 589.55 289.886Z" fill="#394455"/>
<path d="M592.487 287.182C591.592 286.62 591.323 285.438 591.885 284.543C592.448 283.649 593.629 283.379 594.524 283.942C595.419 284.504 595.688 285.686 595.126 286.581C594.563 287.476 593.382 287.745 592.487 287.182Z" fill="white"/>
<g opacity="0.07">
<path d="M521.339 276.599C517.908 278.399 514.964 281.094 513.071 284.499C511.319 287.624 510.64 291.269 510.965 294.825C511.407 300.83 514.79 306.35 519.311 310.198C523.033 313.29 527.696 315.422 532.56 315.713C535.662 315.843 538.843 315.578 541.703 314.277C543.556 313.48 545.259 312.378 546.762 311.047C543.49 311.458 542.135 312.369 535.762 312.399C526.762 312.442 521.739 309.357 517.638 302.742C513.888 296.693 511.477 286.655 521.339 276.599Z" fill="#1E1E1E"/>
<path d="M580.345 272.305C577.889 272.941 575.852 274.892 574.634 277.092C572.232 281.333 571.482 286.464 572.378 291.239C573.22 295.053 574.89 298.901 577.927 301.471C579.443 302.637 581.346 303.172 583.175 303.624C584.977 303.926 586.729 303.239 588.296 302.346C585.481 302.387 583.509 302.181 580.41 300.493C575.946 298.062 574.89 294.282 573.994 288.984C573.222 284.413 572.989 278.479 580.345 272.305V272.305Z" fill="#1E1E1E"/>
</g>
<path d="M569.217 300.192C569.059 300.195 568.898 300.204 568.735 300.219C568.084 300.277 567.46 300.423 566.897 300.637C566.333 300.85 565.83 301.13 565.422 301.455C565.13 301.687 564.889 301.944 564.711 302.214C564.57 302.249 564.427 302.28 564.288 302.319C563.212 302.618 562.197 303.036 561.352 303.548C560.506 304.06 559.811 304.649 559.406 305.315C558.99 305.997 558.849 306.765 558.897 307.374C558.952 308.088 559.393 308.734 560.018 309.316C560.643 309.898 561.507 310.413 562.507 310.836C562.906 311.004 563.329 311.152 563.761 311.286L563.524 312.934L563.082 315.17C563.002 315.573 563.108 315.928 563.304 316.186C563.499 316.444 563.799 316.592 564.152 316.6L565.329 316.628L567.658 316.574C568.105 316.564 568.519 316.39 568.824 316.124C569.128 315.857 569.308 315.494 569.345 315.099L569.548 312.88L569.632 311.756C570.604 311.607 571.484 311.36 572.26 311.064C573.145 310.727 573.888 310.327 574.474 309.883C575.06 309.438 575.493 308.946 575.766 308.397C576.039 307.848 576.152 307.24 576.053 306.585C575.954 305.93 575.647 305.292 575.173 304.705C574.779 304.216 574.266 303.768 573.675 303.373C573.678 303.217 573.67 303.058 573.638 302.894C573.563 302.495 573.387 302.114 573.12 301.769C572.853 301.424 572.496 301.116 572.065 300.866C571.634 300.616 571.128 300.424 570.566 300.31C570.144 300.225 569.692 300.183 569.217 300.192V300.192Z" fill="#1E1E1E" fill-opacity="0.0854271"/>
<path d="M569.429 308.169L567.427 308.195L566.26 308.169C565.888 308.161 565.556 308.338 565.315 308.598C565.073 308.858 564.954 309.219 564.898 309.613L564.579 311.841L564.137 314.076C564.057 314.479 564.163 314.834 564.359 315.092C564.554 315.351 564.854 315.498 565.207 315.506L566.384 315.534L568.713 315.48C569.16 315.47 569.575 315.296 569.879 315.03C570.183 314.763 570.363 314.4 570.399 314.005L570.603 311.786L570.768 309.571C570.798 309.177 570.621 308.823 570.374 308.571C570.127 308.318 569.79 308.167 569.429 308.169L569.429 308.169Z" fill="#2E3436"/>
<path d="M569.064 308.843L567.43 308.865L566.651 308.833C566.356 308.821 566.083 308.97 565.878 309.184C565.672 309.397 565.552 309.692 565.497 310.015L565.181 311.836L564.787 313.663C564.716 313.989 564.787 314.282 564.941 314.493C565.094 314.704 565.339 314.818 565.632 314.83L566.431 314.862L568.282 314.822C568.632 314.814 568.966 314.673 569.217 314.456C569.468 314.238 569.628 313.942 569.669 313.618L569.899 311.803L570.097 309.991C570.132 309.669 570.007 309.379 569.817 309.172C569.626 308.965 569.359 308.839 569.064 308.843L569.064 308.843Z" fill="white"/>
<path d="M559.952 306.28C560.008 306.994 560.448 307.64 561.073 308.222C561.698 308.804 562.562 309.32 563.562 309.742C564.563 310.164 565.691 310.489 566.834 310.663C567.977 310.836 569.135 310.856 570.273 310.719C571.411 310.581 572.43 310.308 573.315 309.971C574.2 309.633 574.943 309.233 575.529 308.789C576.115 308.344 576.548 307.852 576.821 307.303C577.094 306.754 577.208 306.146 577.108 305.491C577.009 304.836 576.702 304.198 576.228 303.611C575.754 303.024 575.117 302.489 574.368 302.045C573.619 301.6 572.76 301.245 571.812 301.013C570.864 300.78 569.826 300.67 568.69 300.707C567.553 300.745 566.42 300.926 565.343 301.225C564.267 301.524 563.253 301.943 562.407 302.454C561.561 302.966 560.867 303.556 560.461 304.221C560.045 304.903 559.904 305.671 559.952 306.28V306.28Z" fill="#394655"/>
<path d="M562.357 306.119C562.455 306.687 562.786 307.217 563.296 307.691C563.806 308.166 564.493 308.587 565.273 308.922C566.053 309.258 566.924 309.506 567.811 309.636C568.698 309.766 569.603 309.778 570.493 309.67C571.384 309.561 572.179 309.346 572.868 309.071C573.558 308.796 574.14 308.461 574.597 308.088C575.053 307.715 575.386 307.302 575.582 306.851C575.778 306.401 575.838 305.913 575.736 305.395C575.634 304.878 575.377 304.381 574.999 303.928C574.621 303.474 574.122 303.065 573.535 302.726C572.947 302.388 572.271 302.12 571.525 301.946C570.78 301.773 569.965 301.694 569.083 301.731C568.201 301.767 567.331 301.915 566.509 302.153C565.687 302.39 564.914 302.718 564.262 303.115C563.609 303.513 563.08 303.98 562.742 304.49C562.405 305 562.259 305.552 562.357 306.119V306.119Z" fill="#E1D0CB"/>
<path d="M565.513 302.657C565.656 303.064 565.965 303.425 566.393 303.729C566.821 304.034 567.365 304.283 567.956 304.474C568.548 304.665 569.183 304.798 569.804 304.869C570.425 304.94 571.033 304.949 571.602 304.886C572.172 304.823 572.652 304.695 573.059 304.516C573.466 304.338 573.799 304.11 574.061 303.841C574.323 303.572 574.515 303.262 574.627 302.919C574.738 302.576 574.769 302.199 574.693 301.8C574.618 301.402 574.442 301.02 574.175 300.675C573.908 300.33 573.551 300.022 573.12 299.772C572.689 299.522 572.183 299.33 571.621 299.216C571.059 299.103 570.441 299.067 569.79 299.125C569.139 299.183 568.515 299.33 567.952 299.543C567.388 299.756 566.885 300.036 566.477 300.361C566.069 300.686 565.757 301.056 565.582 301.447C565.408 301.838 565.371 302.251 565.513 302.657V302.657Z" fill="#394655"/>
<path d="M534.049 332.472C534.108 333.728 534.397 334.655 534.876 335.325C535.355 335.995 536.022 336.414 536.821 336.723C537.619 337.031 538.546 337.239 539.536 337.433C540.526 337.627 541.577 337.799 542.632 337.959C543.687 338.12 544.686 338.2 545.601 338.189C546.516 338.178 547.347 338.082 548.049 337.871C548.752 337.66 549.326 337.329 549.717 336.822C550.107 336.314 550.315 335.628 550.287 334.725C550.258 333.823 550.007 333.146 549.589 332.662C549.17 332.179 548.584 331.892 547.881 331.735C547.178 331.577 546.358 331.549 545.453 331.521C544.549 331.494 543.558 331.457 542.498 331.283C541.438 331.108 540.362 330.716 539.34 330.342C538.318 329.968 537.354 329.621 536.54 329.503C535.726 329.384 535.065 329.493 534.631 329.953C534.196 330.413 533.989 331.217 534.049 332.472V332.472Z" fill="#E1D6B9"/>
<path d="M536.259 328.846C537.031 328.892 537.932 329.115 538.906 329.395C540.018 329.715 541.221 330.101 542.443 330.301C543.664 330.5 544.799 330.572 545.838 330.653C546.876 330.733 547.819 330.835 548.633 331.09C549.447 331.345 550.13 331.753 550.625 332.356C551.12 332.96 551.427 333.753 551.487 334.741C551.548 335.729 551.321 336.524 550.872 337.139C550.424 337.755 549.754 338.194 548.931 338.498C548.109 338.803 547.135 338.977 546.069 339.04C545.003 339.102 543.844 339.046 542.63 338.865C541.416 338.685 540.255 338.478 539.19 338.244C538.124 338.01 537.155 337.756 536.333 337.38C536.021 337.238 535.73 337.075 535.462 336.888C534.922 336.511 534.957 335.098 535.422 335.594C535.853 336.053 536.395 336.373 537.025 336.617C537.793 336.913 538.685 337.113 539.637 337.3C540.589 337.486 541.6 337.651 542.615 337.806C543.629 337.96 544.59 338.037 545.47 338.027C546.35 338.016 547.15 337.924 547.825 337.721C548.501 337.518 549.053 337.2 549.429 336.712C549.805 336.224 550.005 335.563 549.977 334.695C549.95 333.827 549.708 333.176 549.306 332.711C548.903 332.246 548.34 331.97 547.664 331.819C546.987 331.667 546.198 331.64 545.328 331.614C544.458 331.587 543.506 331.552 542.486 331.384C541.467 331.216 540.431 330.839 539.448 330.479C538.466 330.12 537.538 329.787 536.756 329.672C536.658 329.658 536.562 329.647 536.469 329.64C536.23 329.621 536.006 329.62 535.802 329.661C535.568 329.708 535.287 328.812 535.936 328.838C536.041 328.842 536.148 328.839 536.259 328.846L536.259 328.846Z" fill="#394655"/>
</g>
</g>
<defs>
<linearGradient id="paint0_linear" x1="167.051" y1="396.791" x2="167.051" y2="40.9656" gradientUnits="userSpaceOnUse">
<stop stop-color="#808080" stop-opacity="0.251"/>
<stop offset="0.54" stop-color="#808080" stop-opacity="0.122"/>
<stop offset="1" stop-color="#808080" stop-opacity="0.102"/>
</linearGradient>
<clipPath id="clip0">
<rect width="674.38" height="397.257" fill="white"/>
</clipPath>
<clipPath id="clip1">
<rect width="138.384" height="145.527" fill="white" transform="translate(479 239)"/>
</clipPath>
</defs>
</svg>
